# xmcd
#
# Track frame offsets:
#	150
#	14982
#	27855
#	36682
#	49705
#	67413
#	85386
#	98484
#	108731
#	121982
#	133509
#	156885
#	169011
#	181216
#
# Disc length: 2549 seconds
#
# Revision: 0
# Processed by: cddbd v1.5.2PL0 Copyright (c) Steve Scherf et al.
# Submitted via: EasyCDDAExtractor 12.0.1.1
#
DISCID=c709f30e
DTITLE=Donna Herula
DYEAR=2009
DGENRE=Blues
TTITLE0=Future Blues
TTITLE1=I Got To Make a Change
TTITLE2=Daddy Goodbye Blues
TTITLE3=Nobody Knows You When You're Down And Out
TTITLE4=Police Dog Blues
TTITLE5=Walking Blues
TTITLE6=Vestapol
TTITLE7=Hey, Hey
TTITLE8=The Blues Ain't Nothin' But
TTITLE9=Big Road Blues
TTITLE10=Trouble Everywhere I Roam
TTITLE11=Its Hard To Be Mistreated
TTITLE12=Lost Your Head Blues
TTITLE13=John Henry
EXTD=
EXTT0=
EXTT1=
EXTT2=
EXTT3=
EXTT4=
EXTT5=
EXTT6=
EXTT7=
EXTT8=
EXTT9=
EXTT10=
EXTT11=
EXTT12=
EXTT13=
PLAYORDER=
